name C:\Users\u0088756\Documents\FWO\Software\ExoSim\SimExo_3D\3dpredictsim\Debug\Test.mot.mot
datacolumns 126
datarows 4
range 0.59289071 0.62846415
endheader
time	pelvis_tilt	pelvis_list	pelvis_rotation	pelvis_tx	pelvis_ty	pelvis_tz	hip_flexion_l	hip_adduction_l	hip_rotation_l	hip_flexion_r	hip_adduction_r	hip_rotation_r	knee_angle_l	knee_angle_r	ankle_angle_l	ankle_angle_r	subtalar_angle_l	subtalar_angle_r	mtp_angle_l	mtp_angle_r	lumbar_extension	lumbar_bending	lumbar_rotation	arm_flex_l	arm_add_l	arm_rot_l	arm_flex_r	arm_add_r	arm_rot_r	elbow_flex_l	elbow_flex_r	pro_sup_l	pro_sup_r	glut_med1_l/activation	glut_med2_l/activation	glut_med3_l/activation	glut_min1_l/activation	glut_min2_l/activation	glut_min3_l/activation	semimem_l/activation	semiten_l/activation	bifemlh_l/activation	bifemsh_l/activation	sar_l/activation	add_long_l/activation	add_brev_l/activation	add_mag1_l/activation	add_mag2_l/activation	add_mag3_l/activation	tfl_l/activation	pect_l/activation	grac_l/activation	glut_max1_l/activation	glut_max2_l/activation	glut_max3_l/activation	iliacus_l/activation	psoas_l/activation	quad_fem_l/activation	gem_l/activation	peri_l/activation	rect_fem_l/activation	vas_med_l/activation	vas_int_l/activation	vas_lat_l/activation	med_gas_l/activation	lat_gas_l/activation	soleus_l/activation	tib_post_l/activation	flex_dig_l/activation	flex_hal_l/activation	tib_ant_l/activation	per_brev_l/activation	per_long_l/activation	per_tert_l/activation	ext_dig_l/activation	ext_hal_l/activation	ercspn_l/activation	intobl_l/activation	extobl_l/activation	glut_med1_r/activation	glut_med2_r/activation	glut_med3_r/activation	glut_min1_r/activation	glut_min2_r/activation	glut_min3_r/activation	semimem_r/activation	semiten_r/activation	bifemlh_r/activation	bifemsh_r/activation	sar_r/activation	add_long_r/activation	add_brev_r/activation	add_mag1_r/activation	add_mag2_r/activation	add_mag3_r/activation	tfl_r/activation	pect_r/activation	grac_r/activation	glut_max1_r/activation	glut_max2_r/activation	glut_max3_r/activation	iliacus_r/activation	psoas_r/activation	quad_fem_r/activation	gem_r/activation	peri_r/activation	rect_fem_r/activation	vas_med_r/activation	vas_int_r/activation	vas_lat_r/activation	med_gas_r/activation	lat_gas_r/activation	soleus_r/activation	tib_post_r/activation	flex_dig_r/activation	flex_hal_r/activation	tib_ant_r/activation	per_brev_r/activation	per_long_r/activation	per_tert_r/activation	ext_dig_r/activation	ext_hal_r/activation	ercspn_r/activation	intobl_r/activation	extobl_r/activation	
          0.59289071	         -2.85428350	          2.06818560	         -5.72438212	          0.74111339	          0.91339455	          0.00178411	         31.27584805	          3.17475329	         -3.36279577	         -9.33348100	          2.75557249	          7.53927617	        -14.67199901	        -25.88265365	         11.22370980	          0.95123962	          9.20824697	          2.28888854	          0.00706188	         -0.72003451	         -2.48903527	         -2.06808020	          2.51829821	         -8.91041947	        -13.62656319	          5.49710716	          9.73320607	        -13.44988592	         19.38715638	         10.64983948	         42.85361832	         86.51662706	         86.51662706	          0.17892509	          0.05000981	          0.18604277	          0.05988773	          0.05987635	          0.05987711	          0.25267118	          0.11288150	          0.18525536	          0.14103950	          0.05000296	          0.05000435	          0.05911832	          0.05250384	          0.06415500	          0.14438099	          0.05000711	          0.05001418	          0.09284874	          0.12164228	          0.14775145	          0.08285687	          0.05251880	          0.05992032	          0.14371612	          0.08600347	          0.13258194	          0.05000024	          0.05000049	          0.05000047	          0.05000033	          0.07171593	          0.07171694	          0.05988157	          0.07651454	          0.05988362	          0.05988364	          0.36327930	          0.09746694	          0.07751475	          0.22654522	          0.39850181	          0.21786471	          0.05000003	          0.05457093	          0.12319375	          0.54801946	          0.10286159	          0.05988220	          0.76455100	          0.39502655	          0.10288863	          0.05001557	          0.05000605	          0.05000101	          0.05001123	          0.12244531	          0.05000067	          0.05000132	          0.05000207	          0.05000477	          0.10786999	          0.41875108	          0.05001934	          0.05000097	          0.05577608	          0.05000222	          0.05000070	          0.44004288	          0.42716473	          0.05000012	          0.05000068	          0.05831720	          0.47413279	          0.20787724	          0.20153710	          0.18743171	          0.31297558	          0.61824457	          0.19612585	          0.99970155	          0.60608484	          0.79106511	          0.12319235	          0.05000007	          0.05000004	          0.05000010	          0.05000004	          0.05000037	          0.05000001	          0.09742915	          0.06111263	
          0.60474853	         -2.86233313	          2.33353282	         -5.97756847	          0.75950342	          0.91175349	          0.00149541	         30.77821917	          3.48878035	         -3.36405951	        -10.03143983	          2.43692336	          7.43282551	        -15.81625477	        -26.32891291	         10.97188041	         -0.61165351	          9.31557074	          1.15339528	         -0.00485508	         -0.68080125	         -2.20816908	         -2.30139125	          2.56175499	         -9.86707398	        -13.61751783	          5.61286776	          9.32007606	        -13.45442458	         19.38010200	         10.54389322	         43.88854106	         86.51662706	         86.51662706	          0.25073636	          0.16861944	          0.28932993	          0.05000846	          0.05000800	          0.05000120	          0.21097602	          0.13197908	          0.15468578	          0.15687295	          0.05988698	          0.05000569	          0.05000798	          0.05051763	          0.05357113	          0.17748085	          0.05000040	          0.05001917	          0.20844985	          0.18650728	          0.18923842	          0.12547597	          0.05618974	          0.05451348	          0.17317815	          0.07181448	          0.16248968	          0.05000002	          0.05000003	          0.05000004	          0.05000003	          0.05988156	          0.05988242	          0.05000006	          0.06388834	          0.05000205	          0.05000202	          0.48081030	          0.15451985	          0.09469371	          0.35769650	          0.48849055	          0.31680355	          0.05000004	          0.09799753	          0.10286461	          0.53362353	          0.08588762	          0.05000060	          0.63839089	          0.32984023	          0.08591021	          0.05001897	          0.05000191	          0.05000103	          0.05000027	          0.10223978	          0.17133039	          0.09236825	          0.05003653	          0.05904011	          0.11585669	          0.34964988	          0.05000105	          0.05000066	          0.05000128	          0.05000119	          0.05000199	          0.40414989	          0.49136033	          0.05000010	          0.05000035	          0.05000009	          0.39589264	          0.23614234	          0.22520338	          0.20665670	          0.27048082	          0.55973403	          0.16376162	          0.94917010	          0.50607020	          0.66052556	          0.10286343	          0.05000013	          0.05000026	          0.05000015	          0.05000005	          0.05000027	          0.05000001	          0.08135162	          0.05102803	
          0.61660634	         -2.86894562	          2.58366437	         -6.21584697	          0.77801164	          0.91020613	          0.00118544	         30.29046236	          3.81920959	         -3.34105004	        -10.63611704	          2.09578742	          7.27257511	        -16.93817404	        -26.88171634	         10.63618631	         -2.34202612	          9.42589877	          0.25181468	         -0.02220153	         -0.59693467	         -1.93620891	         -2.51901418	          2.59636596	        -10.79949167	        -13.60393782	          5.76801201	          8.86588335	        -13.46620686	         19.35134448	         10.47802068	         44.82419925	         86.51662706	         86.51662706	          0.38081254	          0.32948126	          0.41897711	          0.05000063	          0.05000046	          0.11937628	          0.17616127	          0.11020218	          0.12916019	          0.13098617	          0.05000485	          0.05000787	          0.11416193	          0.17577989	          0.19586979	          0.21811188	          0.05000044	          0.05001339	          0.17405328	          0.27391213	          0.25031676	          0.21183923	          0.05000020	          0.05000020	          0.25196269	          0.05996488	          0.16617052	          0.05000007	          0.05000018	          0.05000020	          0.05000016	          0.05000013	          0.05000084	          0.05000003	          0.05334684	          0.05000042	          0.05000033	          0.50693895	          0.12902147	          0.07906763	          0.43548276	          0.48810022	          0.33969824	          0.06247029	          0.08933301	          0.08589013	          0.47600557	          0.07171467	          0.05000006	          0.53410985	          0.27541083	          0.07173354	          0.05000451	          0.05000047	          0.05000043	          0.05000117	          0.08536866	          0.14305835	          0.22147146	          0.05000142	          0.05000300	          0.09673897	          0.29195166	          0.11756158	          0.05000084	          0.05000141	          0.05000083	          0.05000061	          0.47913022	          0.53444844	          0.05000011	          0.05000043	          0.05000016	          0.35490011	          0.24705791	          0.23469833	          0.21647053	          0.22584674	          0.46736830	          0.13673805	          0.79254022	          0.42255971	          0.55152724	          0.08588914	          0.13864513	          0.12592029	          0.05000016	          0.05000006	          0.05000016	          0.06012537	          0.06792716	          0.05000006	
          0.62846415	         -2.87493917	          2.81709036	         -6.42411377	          0.79645293	          0.90890842	          0.00085679	         29.88698852	          4.15008721	         -3.30781794	        -11.10198139	          1.72832124	          7.09270686	        -18.16517773	        -27.56531888	         10.21850738	         -4.28918385	          9.55407215	         -0.33971757	         -0.02974854	         -0.55487136	         -1.68937405	         -2.72815088	          2.62085582	        -11.65629453	        -13.58792436	          5.95986568	          8.39815528	        -13.47814642	         19.31304056	         10.42219533	         45.61511019	         86.51662706	         86.51662706	          0.46826820	          0.46443730	          0.54066915	          0.07121470	          0.20055276	          0.20762511	          0.14709158	          0.10301556	          0.10903051	          0.10937116	          0.05000037	          0.05000063	          0.09533090	          0.26888868	          0.29090894	          0.25507963	          0.05000028	          0.05000355	          0.14533290	          0.35435919	          0.31149821	          0.28125828	          0.05000010	          0.05000010	          0.25186617	          0.05007178	          0.17653849	          0.05000007	          0.07086534	          0.10992575	          0.12661886	          0.05000008	          0.05000018	          0.05000003	          0.14161810	          0.08508544	          0.05000479	          0.56934118	          0.10773070	          0.06602012	          0.36362056	          0.47943653	          0.33628912	          0.07612444	          0.07459158	          0.07171675	          0.39921318	          0.05988052	          0.05000006	          0.44597281	          0.22996325	          0.05989628	          0.05000659	          0.05000063	          0.05000057	          0.05000041	          0.07128164	          0.20124855	          0.18492530	          0.05000233	          0.05000857	          0.08077678	          0.24377479	          0.09816290	          0.05000061	          0.05000142	          0.05000096	          0.05000087	          0.50236424	          0.56515260	          0.05000009	          0.05000034	          0.05000013	          0.33711318	          0.24906945	          0.23569960	          0.21857287	          0.18857804	          0.39024429	          0.11417385	          0.66175704	          0.35282991	          0.46051553	          0.07171591	          0.28547965	          0.16822896	          0.05000045	          0.05000003	          0.05000016	          0.06630817	          0.05671798	          0.05000008	
